PathFileType	4	(X/Y/Z)	E:\Studenten\Marcel_BSc\Simon_27_12_2024\27-12-2024\static_00.trc
DataRate	CameraRate	NumFrames	NumMarkers	Units	OrigDataRate	OrigDataStartFrame	OrigNumFrames
200.0	200.0	4	63	mm	200.0	230	175	
Frame#	Time	FHD			LBHD			RBHD			RBAR			LBAR			RASI			RSACR			LSACR			LASI			USACR			C7			CLAV			T10			RSHO			LSHO			LTHI1			LTHI3			LTHI2			LTHI4			LLFC			LMFC			LTIB1			LTIB2			LTIB3			LTIB4			LMMAL			LLMAL			LHEE			LMT1			LMT5			LMT3			RTHI1			RTHI3			RTHI2			RTHI4			RLFC			RMFC			RTIB1			RTIB3			RTIB2			RTIB4			RLMAL			RMMAL			RHEE			RMT5			RMT1			RMT3			LMEP			LLEP			LDUPA			LMUPA			LUUPA			LUL			LRAD			LRFIN			RUL			RRAD			RUFIN			RMEP			RDUPA			RUUPA			RLEP			RMUPA			
		X1	Y1	Z1	X2	Y2	Z2	X3	Y3	Z3	X4	Y4	Z4	X5	Y5	Z5	X6	Y6	Z6	X7	Y7	Z7	X8	Y8	Z8	X9	Y9	Z9	X10	Y10	Z10	X11	Y11	Z11	X12	Y12	Z12	X13	Y13	Z13	X14	Y14	Z14	X15	Y15	Z15	X16	Y16	Z16	X17	Y17	Z17	X18	Y18	Z18	X19	Y19	Z19	X20	Y20	Z20	X21	Y21	Z21	X22	Y22	Z22	X23	Y23	Z23	X24	Y24	Z24	X25	Y25	Z25	X26	Y26	Z26	X27	Y27	Z27	X28	Y28	Z28	X29	Y29	Z29	X30	Y30	Z30	X31	Y31	Z31	X32	Y32	Z32	X33	Y33	Z33	X34	Y34	Z34	X35	Y35	Z35	X36	Y36	Z36	X37	Y37	Z37	X38	Y38	Z38	X39	Y39	Z39	X40	Y40	Z40	X41	Y41	Z41	X42	Y42	Z42	X43	Y43	Z43	X44	Y44	Z44	X45	Y45	Z45	X46	Y46	Z46	X47	Y47	Z47	X48	Y48	Z48	X49	Y49	Z49	X50	Y50	Z50	X51	Y51	Z51	X52	Y52	Z52	X53	Y53	Z53	X54	Y54	Z54	X55	Y55	Z55	X56	Y56	Z56	X57	Y57	Z57	X58	Y58	Z58	X59	Y59	Z59	X60	Y60	Z60	X61	Y61	Z61	X62	Y62	Z62	X63	Y63	Z63	
230	1.145	112.34525	1727.3511	-930.33728	282.14038	1697.2137	-852.27258	237.6729	1725.8425	-1005.1288	2013.7694	28.05611	-2007.8495	1903.455	23.669096	212.51855	158.14267	969.90942	-1062.3217	347.76819	977.00159	-958.20062	345.2164	973.01868	-915.86823	153.05362	974.34546	-813.24487	338.51282	985.71381	-933.1026	318.93826	1481.5278	-924.60291	163.27779	1432.1891	-925.23517	332.93939	1169.981	-934.80817	299.00821	1468.1316	-1086.2241	285.49323	1461.8016	-764.12848	221.86961	813.52539	-732.36627	189.233	790.80219	-732.42523	236.5762	774.55603	-723.9762	191.17104	726.43298	-724.08258	261.00769	499.35724	-743.01941	235.99239	469.70908	-847.5813	319.77344	416.42972	-730.91266	296.03226	378.02045	-714.44513	342.98157	366.53976	-727.87677	309.02927	313.59842	-709.57928	251.50255	97.349442	-823.05133	282.07446	76.639603	-736.59229	331.21173	35.418526	-786.19458	111.33224	41.068264	-775.05493	155.19548	29.494646	-703.82495	128.84352	33.656563	-724.55878	209.06055	817.42987	-1143.2354	162.43059	781.78583	-1130.3185	209.75562	784.67639	-1148.4685	188.74435	721.88879	-1146.024	256.14261	500.71515	-1124.4928	242.44801	482.88177	-1003.0543	306.78275	433.03192	-1136.7578	339.87021	382.8873	-1142.4907	289.7182	385.61868	-1154.2937	312.44888	323.79504	-1155.4631	288.00424	82.870384	-1132.3344	248.73068	100.36622	-1049.8987	328.43442	33.182976	-1073.7792	172.52663	28.882328	-1181.9255	119.29364	45.916763	-1119.2765	130.81511	35.034168	-1159.9246	214.67189	1296.734	-501.50104	272.40335	1396.0269	-489.64886	305.13824	1389.5743	-564.10242	323.84207	1382.2084	-623.01239	297.61563	1422.8337	-635.63757	226.63057	1365.9287	-232.74738	168.03462	1343.4567	-247.50288	157.92238	1353.7817	-153.43404	247.59839	1397.025	-1608.163	197.37862	1401.5939	-1593.0046	182.06763	1401.7441	-1698.0431	232.95566	1300.3937	-1358.2007	286.07846	1432.626	-1284.5598	314.91846	1426.1586	-1210.2393	284.29779	1402.9491	-1363.621	321.20993	1401.0696	-1267.1996
231	1.15	112.50902	1727.489	-930.32617	282.33063	1697.1433	-852.28009	237.83446	1725.8246	-1005.1142	2013.7709	28.05468	-2007.8868	1903.4364	23.664919	212.55534	158.0985	969.90045	-1062.3114	347.72549	977.00604	-958.19977	345.17133	973.02832	-915.85474	153.01443	974.33826	-813.237	338.31528	985.62604	-933.04712	318.94836	1481.5022	-924.59296	163.25877	1432.1957	-925.22388	332.90085	1169.9708	-934.80634	298.97604	1468.1279	-1086.2238	285.4675	1461.7936	-764.12128	221.8344	813.51703	-732.36877	189.19583	790.79285	-732.42072	236.50883	774.52155	-723.9325	191.14844	726.41656	-724.09442	261.00479	499.35327	-743.02319	235.98997	469.6904	-847.57184	319.76901	416.43384	-730.93158	296.02225	378.02664	-714.45477	343.12671	366.60547	-727.69867	309.15659	313.513	-710.49268	251.75822	97.233429	-822.71277	282.07303	76.637138	-736.59735	331.09717	35.314831	-786.17651	111.33421	41.059471	-775.04749	155.19173	29.490692	-703.82953	128.83553	33.647717	-724.56421	209.01857	817.42352	-1143.2284	162.38736	781.78741	-1130.3065	209.7099	784.68402	-1148.468	188.71254	721.87738	-1146.0114	256.11252	500.71259	-1124.4818	242.42455	482.88507	-1003.044	306.75476	433.02914	-1136.757	339.85812	382.9006	-1142.4961	289.70255	385.6156	-1154.2961	312.43121	323.80917	-1155.4717	288.00766	82.867111	-1132.3228	248.75914	100.35314	-1049.8822	328.43094	33.19136	-1073.7667	172.52011	28.897043	-1181.9253	119.29292	45.911243	-1119.2722	130.81848	35.018555	-1159.9209	214.68465	1296.752	-501.48529	272.38626	1396.0406	-489.64517	305.10791	1389.5809	-564.10596	323.80923	1382.21	-623.00854	297.58789	1422.8326	-635.63507	226.61337	1365.9617	-232.74506	168.02835	1343.4714	-247.4801	157.87723	1353.8022	-153.3105	247.52907	1397.0166	-1608.1619	197.30968	1401.5901	-1592.9956	181.97929	1401.7324	-1698.032	232.93399	1300.3671	-1358.2098	286.00345	1432.6235	-1284.5656	314.85861	1426.1637	-1210.2483	284.27527	1403.053	-1363.6217	321.15347	1401.089	-1267.2073
232	1.155	112.67875	1727.6156	-930.27826	282.50989	1697.0751	-852.28497	237.94043	1725.7769	-1004.6808	2013.7332	28.078989	-2007.9058	1903.3988	23.773832	212.68491	158.05272	969.8905	-1062.3127	347.61432	977.02014	-958.22809	345.13132	973.02472	-915.85748	152.96858	974.32416	-813.23315	338.41998	985.72205	-933.10028	318.94061	1481.502	-924.61322	163.23479	1432.2047	-925.22717	332.85507	1169.9636	-934.8017	298.93546	1468.1222	-1086.2291	285.45181	1461.7886	-764.12726	221.79305	813.50946	-732.37738	189.173	790.78186	-732.42017	236.48026	774.52112	-723.9436	191.1158	726.40906	-724.10889	260.99268	499.3493	-743.03308	236.21292	469.64737	-847.32581	319.76712	416.43542	-730.94653	296.01935	378.02701	-714.45209	343.1384	366.5946	-727.72241	309.0722	313.75803	-709.74567	251.59401	97.406631	-823.04071	282.07437	76.64183	-736.59747	331.20282	35.420349	-786.19037	111.32829	41.063438	-775.05176	155.19322	29.500446	-703.82117	128.83981	33.647915	-724.56287	208.9695	817.41974	-1143.2224	162.3456	781.78076	-1130.3081	209.65523	784.68164	-1148.4722	188.66934	721.85931	-1146.0029	256.0831	500.7128	-1124.4783	242.4104	482.89008	-1003.0314	306.7316	433.03027	-1136.7545	339.83514	382.89191	-1142.4736	289.6615	385.61899	-1154.2897	312.46893	323.72403	-1155.0438	288.00305	82.870377	-1132.3127	248.73604	100.35466	-1049.8621	328.43613	33.191746	-1073.7622	172.5168	28.89336	-1181.9156	119.28201	45.912251	-1119.266	130.80052	35.05294	-1159.934	214.6557	1297.1722	-502.29831	272.375	1396.0529	-489.62915	305.07581	1389.5897	-564.1001	323.78497	1382.2126	-623.00482	297.56531	1422.8295	-635.63318	226.59654	1365.9902	-232.74129	168.02419	1343.4744	-247.48206	157.87219	1353.7827	-153.31416	247.45969	1397.0244	-1608.1663	197.237	1401.5837	-1592.9932	181.90778	1401.6985	-1698.0336	232.86955	1300.3796	-1358.2015	285.92422	1432.6224	-1284.568	314.80301	1426.1729	-1210.2574	284.1842	1402.9841	-1363.6001	321.09274	1401.0968	-1267.2167
233	1.16	112.85122	1727.7385	-930.24188	282.68045	1697.0046	-852.3064	238.10484	1725.7701	-1004.6895	2013.8328	28.023149	-2007.7812	1903.2948	23.856293	212.82715	158.0024	969.89624	-1062.3098	347.55911	977.02325	-958.22345	345.08505	973.02441	-915.85516	152.93469	974.31598	-813.22583	338.38385	985.72021	-933.09821	318.9502	1481.4885	-924.59845	163.22223	1432.2129	-925.2149	332.80609	1169.9575	-934.80646	298.89758	1468.1145	-1086.2289	285.43393	1461.7904	-764.12329	221.76099	813.50317	-732.38251	189.16483	790.74475	-732.41937	236.44183	774.51428	-723.97308	191.08908	726.40662	-724.13513	260.98901	499.35056	-743.03558	236.189	469.64883	-847.34027	319.77087	416.43307	-730.96161	296.02075	378.04858	-714.45862	342.98145	366.5246	-727.91504	309.08194	313.75186	-709.75208	251.61012	97.176102	-822.74927	282.07571	76.648643	-736.59772	331.20035	35.425816	-786.19916	111.32698	41.060913	-775.04474	155.19258	29.490749	-703.82562	128.83636	33.645634	-724.55939	208.91821	817.41522	-1143.2177	162.29152	781.77075	-1130.2959	209.62587	784.66217	-1148.4535	188.74886	721.823	-1146.0154	256.04077	500.71127	-1124.4689	242.37663	482.89349	-1003.0236	306.69943	433.03589	-1136.7568	339.80771	382.89301	-1142.4713	289.64072	385.61557	-1154.2875	312.39917	323.80637	-1155.4587	288.0004	82.874748	-1132.3157	248.79764	100.31975	-1049.9122	328.42606	33.192509	-1073.7662	172.52153	28.886599	-1181.9052	119.28574	45.898075	-1119.2601	130.7831	35.06118	-1159.9257	214.70178	1296.7202	-501.48087	272.35995	1396.0605	-489.62067	305.05698	1389.5903	-564.08923	323.77972	1382.2192	-622.99133	297.54282	1422.8246	-635.62451	226.58891	1366.0144	-232.7301	168.02843	1343.4679	-247.47403	157.8687	1353.7817	-153.30286	247.36807	1396.9888	-1608.1696	197.15742	1401.5649	-1592.9913	181.82666	1401.6572	-1698.0491	232.86165	1300.3062	-1358.2142	285.85577	1432.6198	-1284.5708	314.74829	1426.1823	-1210.2615	284.16116	1402.9871	-1363.6246	321.03735	1401.1106	-1267.2268
